<?xml version="1.0" encoding="UTF-8"?>
<svg id="_レイヤー_2" data-name="レイヤー 2" xmlns="http://www.w3.org/2000/svg" viewBox="0 0 153.5 29.91">
  <defs>
    <style>
      .cls-1 {
        fill: #231815;
      }

      .cls-1, .cls-2 {
        stroke-width: 0px;
      }

      .cls-2 {
        fill: #fff;
      }
    </style>
  </defs>
  <g id="logo">
    <g id="logo-2" data-name="logo">
      <path class="cls-2" d="m61.96,11.28l.72.5c-.41,1.19-.85,2.01-1.34,2.45-.56.55-1.32.8-2.28.72-.67-.04-1.6-.46-2.78-1.28-1.19-.82-2-1.24-2.45-1.28-1.08-.07-2.04.65-2.9,2.17l-.67-.56c.52-1.11,1.02-1.89,1.5-2.34.56-.48,1.3-.76,2.23-.84.59-.04,1.32.19,2.17.67.74.45,1.47.89,2.17,1.34.67.37,1.3.45,1.9.22.7-.26,1.28-.85,1.73-1.78Z"/>
      <path class="cls-2" d="m152.78,11.28l.72.5c-.41,1.19-.85,2.01-1.34,2.45-.56.55-1.32.8-2.28.72-.67-.04-1.6-.46-2.79-1.28-1.19-.82-2-1.24-2.45-1.28-1.08-.07-2.04.65-2.9,2.17l-.67-.56c.52-1.11,1.02-1.89,1.5-2.34.56-.48,1.3-.76,2.23-.84.59-.04,1.31.19,2.17.67.74.45,1.47.89,2.17,1.34.67.37,1.3.45,1.89.22.71-.26,1.28-.85,1.73-1.78Z"/>
      <path class="cls-2" d="m45.39,15.25l1.38-.37-1.33-4.97-1.14.31-1.44-5.36-5.3,1.42.56,2.11-1.32.35-.73-2.73-5.49,1.47.73,2.74-1.34.36-.57-2.11-5.38,1.44,1.44,5.36-.91.24.9,3.37-1.08.36c-.32.11-.8.25-1.44.44.01-.3-.02-.61-.11-.93l-.37-1.4,2.17-.58-1.24-4.63-.77.21c.16-.4.29-.78.37-1.14l.26-1.05-.37-.21-1.2-4.48-4.1,1.1-.07-1.05-5.14.64.06,1.33c.02.48.02,1.03-.02,1.62l-.67-2.52-5.09,1.36.69,2.58-.64.17c-.62-.7-1.09-1.19-1.45-1.49l-.83-.72L0,11.45l1.19,1.24c.34.35.85.94,1.54,1.77.42.51.76.92,1.02,1.25l-1.62.44,1.29,4.84,1.77-.48.79,2.94c-.36.43-.75.79-1.16,1.1l-1.18.85,3.31,4.52,1.19-1.06c.56-.5,1.06-1.1,1.48-1.79l.23-.37c.66.24,1.43.38,2.34.44,1.46-.06,3.59-.47,6.54-1.26l6.16-1.71c.12-.03.22-.06.3-.07l.97-.19,2.48,2.38.95-.58c.28-.17.57-.37.88-.61l.94,3.51,5.49-1.47-.16-.59,5.43-1.46.16.6,5.48-1.47-2.4-8.95Zm-19.08,6.37l-.05-1.24,2.12-.57c-.59.63-1.28,1.23-2.07,1.81Z"/>
      <path class="cls-1" d="m24.83,20.61l.08,2.05c-.1.02-.24.05-.4.09l-6.17,1.72c-2.81.75-4.88,1.16-6.21,1.21-1.23-.08-2.16-.38-2.8-.92l-.95,1.54c-.35.56-.75,1.06-1.21,1.46l-1.51-2.06c.71-.51,1.33-1.17,1.88-1.96l-1.34-5.01-1.77.47-.55-2.05,4.15-1.11,1.73,6.45c.09.35.25.63.47.85.23.21.51.36.86.43.35.07.75.09,1.21.03.45-.05.92-.12,1.39-.2.47-.08,1.88-.43,4.23-1.07,3.63-.97,5.93-1.62,6.91-1.94ZM7.53,13.92l-2.22,1.48c-.26-.37-.75-.99-1.47-1.86-.72-.88-1.26-1.49-1.61-1.86l2.07-1.4c.59.51,1.66,1.72,3.23,3.63Zm3.67-1.1l.31,1.22,2.84-.76c.58,2.17,1.01,3.88,1.27,5.13.26,1.25.39,2.07.38,2.47-.01.4-.16.76-.45,1.09-.29.33-.64.55-1.06.66l-1.55.41-.73-1.77,1.18-.32c.15-.04.26-.12.33-.22.08-.11.12-.28.12-.49s-.09-.72-.25-1.49c-.17-.78-.43-1.84-.8-3.19l-.88.24c.62,2.94.52,5.43-.31,7.47l-1.75-.6c.21-.72.33-1.54.34-2.43.02-.9-.05-1.86-.22-2.86-.17-1.01-.47-2.33-.9-3.98l-1.28.34-.46-1.73,1.77-.47-.69-2.58,2.3-.61.69,2.57,1.54-.41.46,1.73-2.22.59Zm10.24,6.3c.13.47.05.9-.24,1.29-.29.38-.69.65-1.23.79l-2.2.59-.76-2.07,1.58-.42c.31-.08.43-.26.36-.54l-.49-1.83-2.36.63-.49-1.84,2.36-.63-.33-1.22.84-.22c.24-.41.45-.82.63-1.23l-3.31.89-.25-.93c-.11.36-.23.72-.36,1.07l-1.96-.44c.22-.56.4-1.41.53-2.56.13-1.15.17-2.16.13-3.02l2.29-.28c.03.44.03.87.02,1.3l4.47-1.2.49,1.82-5.17,1.38c-.07.41-.14.77-.21,1.09l4.75-1.27,1.07.62c-.21.86-.71,1.93-1.51,3.2l.11.42,2.17-.58.49,1.84-2.17.58.75,2.79Z"/>
      <path class="cls-1" d="m34.75,16.62c-.19.74-.44,1.43-.75,2.09l10.1-2.71,1.92,7.18-2.69.72-.16-.59-8.22,2.2.16.6-2.7.72-1.18-4.41c-.92.94-1.72,1.62-2.41,2.04l-1.7-1.63c2.22-1.62,3.72-3.42,4.52-5.38l-4.73,1.27-.58-2.18,18.1-4.85.58,2.18-10.26,2.75Zm8.21-5.84l-16.04,4.3-1.11-4.14,2.59-.7.57,2.11,4.13-1.11-.73-2.74,2.7-.72.73,2.74,4.11-1.1-.57-2.11,2.52-.67,1.11,4.14Zm-8.55,12.69l8.22-2.2-.68-2.52-8.22,2.2.67,2.52Z"/>
      <g>
        <path class="cls-2" d="m65.93,27.7c-.43,0-.88-.13-1.35-.4l-.06.25h-1.71v-7.64h1.84v2.37c.27-.2.49-.35.69-.43.28-.13.59-.19.9-.19.69,0,1.24.27,1.62.81.36.52.55,1.24.55,2.14s-.23,1.63-.7,2.21c-.47.57-1.08.87-1.79.87Zm-1.28-1.57c.23.07.44.11.64.11.53,0,1.24-.16,1.24-1.58,0-1.32-.57-1.47-1-1.47-.26,0-.55.09-.87.28v2.66Z"/>
        <path class="cls-2" d="m71.57,27.72c-.92,0-1.65-.27-2.16-.81-.51-.54-.77-1.29-.77-2.22s.26-1.69.78-2.22c.52-.54,1.25-.81,2.16-.81s1.64.27,2.16.81c.51.54.77,1.28.77,2.22s-.26,1.68-.77,2.22c-.52.54-1.25.81-2.16.81Zm0-4.64c-.44,0-1.03.17-1.03,1.63s.6,1.59,1.05,1.59,1.01-.17,1.01-1.59-.59-1.63-1.03-1.63Z"/>
        <path class="cls-2" d="m76.97,27.7c-.86,0-1.89-.38-1.89-2.18v-3.71h1.85v2.86c0,.92.13,1.17.19,1.23.12.13.33.2.63.2.24,0,.54-.11.89-.31v-3.98h1.84v5.74h-1.84v-.51c-.28.21-.52.36-.73.46-.3.13-.61.2-.93.2Z"/>
        <rect class="cls-2" x="81.5" y="19.91" width="1.84" height="7.64"/>
        <path class="cls-2" d="m86.17,27.7c-.68,0-1.23-.28-1.63-.83-.39-.53-.58-1.25-.58-2.14s.24-1.62.71-2.19c.48-.58,1.08-.87,1.79-.87.25,0,.48.03.69.09.15.04.34.11.58.23v-2.08h1.84v7.64h-1.84v-.47c-.3.23-.55.38-.73.46-.26.11-.54.16-.83.16Zm.93-4.57c-.54,0-1.24.17-1.24,1.57,0,.55.08.94.26,1.17.16.21.41.32.77.32.25,0,.54-.11.85-.32v-2.61c-.23-.08-.44-.13-.63-.13Z"/>
        <path class="cls-2" d="m93.46,27.69c-1.04,0-1.86-.26-2.42-.77-.57-.51-.85-1.25-.85-2.21s.27-1.69.8-2.24c.54-.55,1.28-.83,2.2-.83,1.71,0,2.61.95,2.61,2.76v.71h-3.73c.12.79.62,1.16,1.56,1.16.55,0,1.11-.21,1.67-.61l.06-.04h.34v1.59l-.14.05c-.74.28-1.44.43-2.1.43Zm.49-3.81c-.08-.82-.51-.93-.88-.93s-.87.1-1,.93h1.88Z"/>
        <path class="cls-2" d="m96.4,27.55v-5.74h1.84v.71c.29-.23.53-.4.75-.5.3-.14.61-.22.91-.22l.52.02v1.87h-.22c-.27-.05-.51-.07-.8-.07-.41,0-.8.06-1.15.17v3.77h-1.84Z"/>
        <path class="cls-2" d="m100.8,27.55v-5.74h1.84v5.74h-1.84Zm-.05-5.96v-1.68h1.94v1.68h-1.94Z"/>
        <path class="cls-2" d="m107.21,27.55v-2.86c0-.92-.13-1.17-.19-1.22-.12-.13-.33-.2-.63-.2-.24,0-.53.1-.88.31v3.97h-1.84v-5.74h1.84v.51c.29-.22.54-.37.75-.46.29-.13.6-.19.92-.19.86,0,1.89.38,1.89,2.18v3.7h-1.85Z"/>
        <path class="cls-2" d="m112.27,29.51c-.64,0-1.28-.07-1.91-.21l-.17-.04v-1.54h.22c.72.22,1.23.33,1.65.33.5,0,.85-.08,1.06-.24.17-.13.27-.4.29-.81-.46.32-.92.47-1.36.47-1.1,0-2.41-.51-2.41-2.92,0-.85.23-1.55.69-2.08.47-.53,1.07-.8,1.79-.8.46,0,.92.12,1.36.36l.06-.22h1.71v4.91c0,.93-.25,1.64-.73,2.1-.48.46-1.24.69-2.26.69Zm.51-6.38c-.84,0-1.24.46-1.24,1.45,0,.5.08.87.26,1.07.16.19.41.29.77.29.26,0,.54-.1.85-.28v-2.4c-.23-.08-.45-.13-.64-.13Z"/>
        <path class="cls-2" d="m121.61,29.51c-.64,0-1.28-.07-1.91-.21l-.17-.04v-1.54h.22c.72.22,1.23.33,1.65.33.49,0,.85-.08,1.06-.24.17-.13.27-.4.28-.81-.46.32-.92.47-1.36.47-1.09,0-2.4-.51-2.4-2.92,0-.85.23-1.55.69-2.08.46-.53,1.07-.8,1.79-.8.46,0,.93.12,1.37.36l.06-.22h1.71v4.91c0,.93-.24,1.64-.72,2.1-.48.46-1.24.69-2.26.69Zm.51-6.38c-.85,0-1.24.46-1.24,1.45,0,.5.09.87.26,1.07.16.19.41.29.78.29.26,0,.54-.1.84-.28v-2.4c-.23-.08-.44-.13-.63-.13Z"/>
        <polygon class="cls-2" points="126.07 29.46 126.97 27.34 124.81 21.81 126.81 21.81 128 25.16 129.19 21.81 131.11 21.81 128.03 29.46 126.07 29.46"/>
        <path class="cls-2" d="m138.11,27.55v-2.88c0-.34-.01-.65-.05-.91-.02-.2-.08-.33-.18-.39-.11-.08-.29-.11-.52-.11-.13,0-.37.06-.8.31v3.97h-1.85v-2.88c0-.36-.02-.67-.05-.92-.03-.19-.09-.32-.19-.38-.12-.08-.29-.11-.51-.11-.13,0-.38.06-.8.31v3.97h-1.84v-5.74h1.84v.5c.31-.23.55-.39.75-.47.27-.12.54-.17.83-.17.67,0,1.18.3,1.54.89.38-.31.68-.52.94-.65.31-.16.62-.24.93-.24.83,0,1.82.38,1.82,2.18v3.7h-1.85Z"/>
      </g>
      <g>
        <path class="cls-2" d="m87.66,14.69c-.27.12-.44.14-.51.14-.14,0-.23-.01-.29-.03-.04-.16-.1-.53-.1-1.3v-5.2h-4.51v2.02c-.17-.28-.37-.54-.6-.78-.95-.99-2.27-1.49-3.89-1.49-.98,0-1.82.2-2.57.56l1.62-2.74h-5.24l-1.72,3.25-1.8-3.25h-5.36l4.77,8.05v4.79h4.66l-.03-4.84.38-.63c0,.09-.02.18-.02.27,0,1.65.47,2.98,1.41,3.96.95.99,2.27,1.49,3.9,1.49s2.94-.5,3.89-1.49c.33-.34.58-.74.8-1.17.45,1.69,1.67,2.63,3.53,2.63.58,0,1.15-.12,1.68-.35v.13h4.49v-10.42h-4.49v6.38Zm-9.87.44c-.28,0-.75,0-.75-1.58s.47-1.64.72-1.64.72,0,.72,1.64-.45,1.58-.69,1.58Z"/>
        <rect class="cls-2" x="92.91" y="10.82" width="7.43" height="4.16"/>
        <path class="cls-2" d="m140.11,8.3h-5.52l-1.28,1.65v-4.54h-4.49v3.49l-.14-.07c-.98-.5-2.01-.75-3.06-.75-1.64,0-2.99.49-4.01,1.44-.35.33-.62.72-.86,1.13-.21-.4-.45-.78-.76-1.11-.95-.99-2.26-1.49-3.9-1.49s-2.93.5-3.88,1.49c-.34.35-.6.76-.81,1.2.04-.26.08-.53.08-.81,0-1.24-.49-2.29-1.4-3.03-.85-.69-2.16-1.04-3.89-1.04h-5.19v12.85h4.65v-3.6l2.78,3.6h5.88v-.02c.54.16,1.13.27,1.79.27,1.63,0,2.94-.5,3.9-1.49.3-.32.54-.69.75-1.08.24.41.51.8.86,1.13,1.01.93,2.39,1.41,4.1,1.41.89,0,1.88-.24,3.02-.76l.1-.04v.59h4.49l-.03-2.15,1.38,2.15h5.38l-3.81-5.69,3.88-4.73Zm-33.5,2.33s-.22.14-.99.16v-.91h.02c.79,0,1.04.11,1.06.11.03.03.03.15.03.19,0,.32-.1.42-.12.45Zm3.32,2.67c.43-.36.75-.79,1-1.26-.1.46-.17.95-.17,1.48,0,.32.04.62.07.91l-.91-1.13Zm6.18,1.83c-.28,0-.75,0-.75-1.58s.47-1.64.72-1.64.72,0,.72,1.64-.45,1.58-.69,1.58Zm12.62-1.13h-.78l-.45.04-.29.27c-.53.49-1.03.74-1.49.74-.49,0-.67-.14-.79-.28-.2-.24-.31-.66-.31-1.23s.11-1.02.33-1.29c.12-.15.3-.3.74-.3s.98.26,1.54.76l.18.16.52.14h.87v1.09l-.08-.11Z"/>
      </g>
      <g>
        <polygon class="cls-1" points="68.47 17.71 68.47 13.65 64.46 6.88 67.45 6.88 69.87 11.24 72.18 6.88 75.04 6.88 71.08 13.61 71.1 17.71 68.47 17.71"/>
        <path class="cls-1" d="m77.76,17.96c-1.35,0-2.42-.4-3.17-1.18-.75-.78-1.13-1.88-1.13-3.26s.39-2.48,1.15-3.27c.76-.78,1.82-1.18,3.16-1.18s2.41.4,3.17,1.18c.75.79,1.13,1.89,1.13,3.27s-.38,2.48-1.13,3.26c-.76.78-1.82,1.18-3.17,1.18Zm0-7.07c-1.17,0-1.73.87-1.73,2.65s.58,2.59,1.76,2.59,1.7-.85,1.7-2.59-.56-2.65-1.73-2.65Z"/>
        <path class="cls-1" d="m85.98,17.93c-1.8,0-2.71-1.06-2.71-3.16v-5.46h2.48v4.18c0,1.34.18,1.82.33,1.98.21.24.58.35,1.08.35.42,0,.93-.19,1.52-.55v-5.97h2.47v8.4h-2.47v-.94c-.54.42-.99.71-1.35.88-.43.19-.88.29-1.34.29Z"/>
        <rect class="cls-1" x="93.92" y="11.83" width="5.4" height="2.13"/>
        <path class="cls-1" d="m108.91,17.71l-3.08-3.98h-1.21v3.98h-2.64V6.88h4.19c1.49,0,2.58.27,3.26.81.68.55,1.03,1.3,1.03,2.24,0,1.39-.67,2.44-2,3.14l3.73,4.64h-3.27Zm-3.44-5.91c.94,0,1.56-.15,1.84-.44.29-.3.43-.68.43-1.18,0-.43-.13-.74-.4-.97-.27-.23-.84-.34-1.7-.34h-1.04v2.93h.86Z"/>
        <path class="cls-1" d="m116.08,17.96c-1.35,0-2.41-.4-3.17-1.18-.75-.78-1.13-1.88-1.13-3.26s.39-2.48,1.15-3.27c.76-.78,1.82-1.18,3.16-1.18s2.41.4,3.17,1.18c.75.79,1.13,1.89,1.13,3.27s-.38,2.48-1.13,3.26c-.76.78-1.82,1.18-3.17,1.18Zm0-7.07c-1.16,0-1.73.87-1.73,2.65s.58,2.59,1.76,2.59,1.7-.85,1.7-2.59-.57-2.65-1.73-2.65Z"/>
        <path class="cls-1" d="m125.69,17.93c-1.45,0-2.6-.38-3.41-1.14-.82-.76-1.24-1.85-1.24-3.24s.42-2.51,1.25-3.29c.83-.78,1.94-1.17,3.32-1.17.9,0,1.77.21,2.61.64l.09.05v2.24h-.23l-.16-.04c-.75-.67-1.5-1.02-2.22-1.02-.66,0-1.16.22-1.53.67-.37.46-.56,1.1-.56,1.93s.19,1.46.56,1.88c.37.43.88.63,1.56.63.73,0,1.46-.34,2.18-1.01l.05-.04h.24l.11.17v2.08l-.1.04c-.92.42-1.77.63-2.51.63Z"/>
        <polygon class="cls-1" points="135.21 17.71 133.02 14.31 132.24 15.28 132.28 17.71 129.82 17.71 129.82 6.42 132.29 6.42 132.29 12.9 135.08 9.31 137.97 9.31 134.97 12.97 138.15 17.71 135.21 17.71"/>
      </g>
      <g>
        <path class="cls-2" d="m25.64,7.44c-.16.44-.5.79-1.04,1.05l-.36-.4c.39-.23.63-.44.74-.65-.35-.08-.65-.3-.92-.68l.41-.38c.2.28.42.44.65.5,0-.23-.07-.58-.2-1.06l-.14-.51c-.13.07-.24.15-.33.25-.1.1-.19.23-.28.41-.09.17-.16.34-.2.51-.04.17-.07.36-.08.59-.01.22,0,.43.04.62l-.49.11c-.19-.34-.34-.73-.46-1.15-.13-.48-.21-1.03-.25-1.63l.61-.09c0,.48.06.97.17,1.47.02-.26.13-.54.33-.85.2-.31.46-.56.8-.73l-.13-.48.63-.17.12.42c.37-.08.72-.04,1.03.14.31.18.52.45.62.81.12.45.08.85-.14,1.19-.21.34-.56.57-1.03.7-.02,0-.05.01-.09.02Zm.09-.61c.23-.09.39-.24.48-.45.09-.21.1-.44.04-.69-.05-.21-.16-.36-.32-.47-.16-.11-.34-.15-.54-.12.11.41.18.68.22.82.03.13.06.28.09.45.02.17.04.32.04.47Z"/>
        <path class="cls-2" d="m28.51,7.44l-.26-.51c.72-.23,1.24-.49,1.58-.81.33-.31.44-.65.34-1.03-.04-.16-.14-.28-.29-.33-.15-.06-.32-.06-.53,0-.14.04-.29.09-.45.14-.16.06-.3.11-.42.17-.12.05-.5.23-1.15.53l-.2-.55.88-.38c.25-.11.48-.2.68-.27.2-.07.38-.13.54-.17.4-.11.75-.1,1.03.02.28.12.47.35.56.68.15.55.02,1.05-.39,1.48-.41.43-1.05.78-1.93,1.05Zm1.41-4.17v.59c-.27,0-.67.06-1.16.15-.5.09-.92.18-1.26.27-.09.02-.17.05-.24.07l-.14-.54c.46-.12.9-.22,1.31-.3.41-.08.91-.16,1.5-.23Z"/>
        <path class="cls-2" d="m35.24,5.52l-3.54.94-.89-3.31,3.54-.94.89,3.31Zm-.83-.38l-.6-2.21-2.2.59.6,2.21,2.2-.59Z"/>
        <path class="cls-2" d="m36.64,3.68l-.49.31c-.24-.41-.56-.82-.94-1.24l.44-.32c.12.13.25.27.37.41.12.14.33.42.63.83Zm1.77-2c.16.91.09,1.66-.21,2.26-.3.6-.85,1.06-1.65,1.39l-.27-.4c.69-.29,1.17-.69,1.41-1.19.25-.5.3-1.15.15-1.96l.56-.09Zm-.82,1.53l-.48.32c-.24-.4-.56-.82-.95-1.25l.43-.32c.2.21.34.36.43.47.09.11.28.36.57.77Z"/>
        <path class="cls-2" d="m42.57,0l.08.42c.16.83.06,1.56-.29,2.19-.36.63-1,1.19-1.93,1.67l-.37-.52c.67-.32,1.17-.72,1.49-1.2.33-.48.47-1.08.42-1.79l-1.43.38c-.21.69-.58,1.29-1.08,1.8l-.49-.36c.66-.72,1.01-1.53,1.03-2.43l.7-.11c-.01.18-.02.33-.04.46l1.9-.51Z"/>
      </g>
    </g>
  </g>
</svg>